General
Complete name                    : D:\seriados\Covert Affairs\Covert Affairs S01E04 720p WEB-DL DD5.1 H264-GFY\Covert Affairs S01E04 720p WEB-DL DD5.1 H264-GFY.mkv
Format                           : Matroska
File size                        : 1.36 GiB
Duration                         : 42mn 52s
Overall bit rate                 : 4 536 Kbps
Encoded date                     : UTC 2010-08-05 05:45:18
Writing application              : mkvmerge v3.2.0 ('Beginnings') built on Feb 12 2010 16:46:17
Writing library                  : libebml v0.7.9 + libmatroska v0.8.1

Video
ID                               : 1
Format                           : AVC
Format/Info                      : Advanced Video Codec
Format profile                   : High@L3.1
Format settings, CABAC           : No
Format settings, ReFrames        : 2 frames
Muxing mode                      : Container profile=Unknown@3.1
Codec ID                         : V_MPEG4/ISO/AVC
Duration                         : 42mn 52s
Bit rate                         : 4 062 Kbps
Width                            : 1 280 pixels
Height                           : 720 pixels
Display aspect ratio             : 16:9
Frame rate                       : 23.976 fps
Color space                      : YUV
Chroma subsampling               : 4:2:0
Bit depth                        : 8 bits
Scan type                        : Progressive
Bits/(Pixel*Frame)               : 0.184
Stream size                      : 1.22 GiB (90%)
Language                         : English
Color primaries                  : BT.709-5, BT.1361, IEC 61966-2-4, SMPTE RP177
Transfer characteristics         : BT.709-5, BT.1361
Matrix coefficients              : BT.709-5, BT.1361, IEC 61966-2-4 709, SMPTE RP177

Audio
ID                               : 2
Format                           : AC-3
Format/Info                      : Audio Coding 3
Mode extension                   : CM (complete main)
Codec ID                         : A_AC3
Duration                         : 42mn 52s
Bit rate mode                    : Constant
Bit rate                         : 384 Kbps
Channel(s)                       : 6 channels
Channel positions                : Front: L C R, Side: L R, LFE
Sampling rate                    : 48.0 KHz
Stream size                      : 118 MiB (8%)
Language                         : English

Screens: http://www.imagebam.com/image/c2ebb692513023 
http://www.imagebam.com/image/59a3f792513039 
http://www.imagebam.com/image/68320492513055 
http://www.imagebam.com/image/a380cd92513065 
http://www.imagebam.com/image/04144292513089

Subs in Portuguese Brasil
Legenda do torrent PT-BR

Legenda feita pelo grupo INSUBS

Resync feito pelo grupo:

[eXtreme_HD]

Resync WEB-DL: Arleyasm

extremehdsubs@gmail.com